<svg width="14" height="9" viewBox="0 0 14 9" fill="none" xmlns="http://www.w3.org/2000/svg">
    <path fillRule="evenodd" clipRule="evenodd" d="M12.8696 2.38511L7.32141 8.04289C7.08786 8.28128 6.71054 8.28128 6.47639 8.04289L0.928221 2.38511C0.590333 2.04097 0.590333 1.48106 0.928221 1.13631C1.26611 0.792178 1.8145 0.792178 2.15238 1.13631L6.8992 5.97623L11.6448 1.13631C11.9833 0.792178 12.5317 0.792178 12.8696 1.13631C13.2075 1.48106 13.2075 2.04097 12.8696 2.38511Z" fill="#333333" />
    <path d="M12.8696 2.38511L7.32141 8.04289C7.08786 8.28128 6.71054 8.28128 6.47639 8.04289L0.928221 2.38511C0.590333 2.04097 0.590333 1.48106 0.928221 1.13631C1.26611 0.792178 1.8145 0.792178 2.15238 1.13631L6.8992 5.97623L11.6448 1.13631C11.9833 0.792178 12.5317 0.792178 12.8696 1.13631C13.2075 1.48106 13.2075 2.04097 12.8696 2.38511" stroke="#333333" strokeWidth="0.623915" />
</svg>