<svg width="13" height="9" viewBox="0 0 13 9" fill="none" xmlns="http://www.w3.org/2000/svg">
    <path fillRule="evenodd" clipRule="evenodd" d="M1.22393 6.56358L6.12664 1.17043C6.33302 0.94319 6.66644 0.94319 6.87336 1.17043L11.7761 6.56358C12.0746 6.89162 12.0746 7.42535 11.7761 7.75397C11.4775 8.08201 10.9929 8.08201 10.6943 7.75397L6.49973 3.14042L2.30622 7.75397C2.0071 8.08201 1.52251 8.08201 1.22393 7.75397C0.925355 7.42535 0.925355 6.89162 1.22393 6.56358Z" fill="#333333" />
    <path d="M1.22393 6.56358L6.12664 1.17043C6.33302 0.94319 6.66644 0.94319 6.87336 1.17043L11.7761 6.56358C12.0746 6.89162 12.0746 7.42535 11.7761 7.75397C11.4775 8.08201 10.9929 8.08201 10.6943 7.75397L6.49973 3.14042L2.30622 7.75397C2.0071 8.08201 1.52251 8.08201 1.22393 7.75397C0.925355 7.42535 0.925355 6.89162 1.22393 6.56358" stroke="#333333" strokeWidth="0.623915" />
</svg>