<svg width="24" height="24" viewBox="0 0 24 24" fill="none" xmlns="http://www.w3.org/2000/svg">
<path d="M24 13.5938C24 12.4306 23.0537 11.4844 21.8906 11.4844H19.6134C19.3232 10.666 18.5416 10.0781 17.625 10.0781H14.8125C13.8959 10.0781 13.1143 10.666 12.8241 11.4844H2.85938V3.51562C2.85938 2.35252 3.80564 1.40625 4.96875 1.40625H6.375C7.32544 1.40625 8.1308 2.03827 8.39363 2.904C6.83639 3.26498 5.67188 4.66266 5.67188 6.32812V7.03125H12.7031V6.32812C12.7031 4.60931 11.4629 3.17564 9.83063 2.8725C9.52748 1.24017 8.09381 0 6.375 0H4.96875C3.03023 0 1.45312 1.57711 1.45312 3.51562V11.5894C0.610453 11.8661 0 12.6598 0 13.5938C0 14.5277 0.610453 15.3215 1.45312 15.5981V17.8125C1.45312 19.6523 2.46802 21.2593 3.96717 22.1038L3.5625 22.5085C3.28793 22.7831 3.28792 23.2282 3.56249 23.5028C3.83707 23.7774 4.28225 23.7774 4.55684 23.5028L5.4188 22.6409C5.72827 22.702 6.04791 22.7344 6.375 22.7344H17.625C17.9521 22.7344 18.2717 22.702 18.5812 22.6408L19.4432 23.5028C19.7178 23.7774 20.1629 23.7774 20.4375 23.5028C20.7121 23.2282 20.7121 22.783 20.4375 22.5085L20.0329 22.1038C21.532 21.2593 22.5469 19.6523 22.5469 17.8125V15.5981C23.3895 15.3215 24 14.5278 24 13.5938ZM11.1764 5.625H7.19859C7.4888 4.80652 8.27081 4.21875 9.1875 4.21875C10.1042 4.21875 10.8862 4.80652 11.1764 5.625ZM14.1094 12.1875C14.1094 11.7998 14.4248 11.4844 14.8125 11.4844H17.625C18.0127 11.4844 18.3281 11.7998 18.3281 12.1875V15.7031H14.1094V12.1875ZM2.10938 12.8906H12.7031V14.2969H2.10938C1.72167 14.2969 1.40625 13.9815 1.40625 13.5938C1.40625 13.206 1.72167 12.8906 2.10938 12.8906ZM17.625 21.3281H6.375C4.43648 21.3281 2.85938 19.751 2.85938 17.8125V15.7031H12.7031V17.1094H19.7344V15.7031H21.1406V17.8125C21.1406 19.751 19.5635 21.3281 17.625 21.3281ZM21.8906 14.2969H19.7344V12.8906H21.8906C22.2783 12.8906 22.5938 13.206 22.5938 13.5938C22.5938 13.9815 22.2783 14.2969 21.8906 14.2969Z" fill="#4A7558" />
</svg>