<svg width="30" height="26" viewBox="0 0 30 26" fill="none" xmlns="http://www.w3.org/2000/svg">
<path d="M28.5354 13.0391V12.4678C28.5354 11.4152 27.9905 10.4881 27.1685 9.95197V3.71947C27.1685 2.07967 25.8344 0.745605 24.1946 0.745605H5.80541C4.16561 0.745605 2.83148 2.07967 2.83148 3.71947V9.95191C2.00941 10.488 1.46449 11.4152 1.46449 12.4677V13.039C0.622734 13.2607 0 14.0283 0 14.9387V21.624C0 22.6758 0.830977 23.5369 1.87084 23.5859V24.377C1.87084 24.8615 2.26359 25.2543 2.74805 25.2543C3.2325 25.2543 3.62525 24.8615 3.62525 24.377V23.5882H26.3747V24.377C26.3747 24.8615 26.7674 25.2543 27.2519 25.2543C27.7363 25.2543 28.1291 24.8615 28.1291 24.377V23.5859C29.169 23.5369 30 22.6757 30 21.624V14.9387C30 14.0282 29.3773 13.2607 28.5354 13.0391ZM4.58596 3.71947C4.58596 3.04705 5.13299 2.50002 5.80541 2.50002H24.1946C24.867 2.50002 25.414 3.04705 25.414 3.71947V9.46558H24.2444V7.91941C24.2444 6.83719 23.364 5.9567 22.2817 5.9567H17.5615C16.4793 5.9567 15.5988 6.83719 15.5988 7.91941V9.46558H14.4012V7.91941C14.4012 6.83719 13.5207 5.9567 12.4385 5.9567H7.71832C6.63603 5.9567 5.75561 6.83719 5.75561 7.91941V9.46558H4.58596V3.71947ZM22.4899 7.91935V9.25728C22.4899 9.37213 22.3965 9.46553 22.2817 9.46553H17.5615C17.4466 9.46553 17.3532 9.37207 17.3532 9.25728V7.91935C17.3532 7.80451 17.4467 7.71111 17.5615 7.71111H22.2817C22.3965 7.71111 22.4899 7.80451 22.4899 7.91935ZM12.6468 7.91935V9.25728C12.6468 9.37213 12.5533 9.46553 12.4385 9.46553H7.71832C7.60348 9.46553 7.51008 9.37207 7.51008 9.25728V7.91935C7.51008 7.80451 7.60354 7.71111 7.71832 7.71111H12.4385C12.5533 7.71111 12.6468 7.80451 12.6468 7.91935ZM3.21896 12.4677C3.21896 11.7797 3.77871 11.22 4.46672 11.22H25.5333C26.2213 11.22 26.781 11.7797 26.781 12.4677V12.9744H3.21896V12.4677ZM28.2455 21.624C28.2455 21.7396 28.1514 21.8337 28.0357 21.8337H1.96424C1.84857 21.8337 1.75441 21.7396 1.75441 21.624V14.9387C1.75441 14.823 1.84852 14.7289 1.96424 14.7289H28.0358C28.1514 14.7289 28.2456 14.823 28.2456 14.9387V21.624H28.2455Z" fill="#4A7558"/>
</svg>