<svg width="14" height="14" viewBox="0 0 14 14" fill="none" xmlns="http://www.w3.org/2000/svg">
<path d="M14 7.92969C14 7.25121 13.448 6.69922 12.7695 6.69922H11.4412C11.2719 6.22182 10.816 5.87891 10.2812 5.87891H8.64062C8.10592 5.87891 7.65002 6.22182 7.4807 6.69922H1.66797V2.05078C1.66797 1.3723 2.21996 0.820312 2.89844 0.820312H3.71875C4.27317 0.820312 4.74296 1.18899 4.89628 1.694C3.98789 1.90457 3.30859 2.71988 3.30859 3.69141V4.10156H7.41016V3.69141C7.41016 2.68877 6.6867 1.85246 5.73453 1.67563C5.5577 0.723434 4.72139 0 3.71875 0H2.89844C1.76764 0 0.847656 0.91998 0.847656 2.05078V6.7605C0.356098 6.92188 0 7.38486 0 7.92969C0 8.47451 0.356098 8.93752 0.847656 9.09888V10.3906C0.847656 11.4638 1.43968 12.4012 2.31418 12.8939L2.07812 13.1299C1.91796 13.2901 1.91795 13.5498 2.07812 13.71C2.23829 13.8701 2.49798 13.8702 2.65815 13.71L3.16096 13.2072C3.34149 13.2428 3.52795 13.2617 3.71875 13.2617H10.2812C10.4721 13.2617 10.6585 13.2428 10.839 13.2071L11.3418 13.71C11.502 13.8701 11.7617 13.8702 11.9219 13.71C12.0821 13.5498 12.0821 13.2901 11.9219 13.1299L11.6858 12.8939C12.5603 12.4013 13.1523 11.4638 13.1523 10.3906V9.09888C13.6439 8.93752 14 8.47454 14 7.92969ZM6.51957 3.28125H4.19918C4.36846 2.8038 4.82464 2.46094 5.35938 2.46094C5.89411 2.46094 6.35028 2.8038 6.51957 3.28125ZM8.23047 7.10937C8.23047 6.88321 8.41446 6.69922 8.64062 6.69922H10.2812C10.5074 6.69922 10.6914 6.88321 10.6914 7.10937V9.16016H8.23047V7.10937ZM1.23047 7.51953H7.41016V8.33984H1.23047C1.00431 8.33984 0.820312 8.15585 0.820312 7.92969C0.820312 7.70353 1.00431 7.51953 1.23047 7.51953ZM10.2812 12.4414H3.71875C2.58795 12.4414 1.66797 11.5214 1.66797 10.3906V9.16016H7.41016V9.98047H11.5117V9.16016H12.332V10.3906C12.332 11.5214 11.4121 12.4414 10.2812 12.4414ZM12.7695 8.33984H11.5117V7.51953H12.7695C12.9957 7.51953 13.1797 7.70353 13.1797 7.92969C13.1797 8.15585 12.9957 8.33984 12.7695 8.33984Z" fill="#9B5A28"/>
</svg>