<svg width="8" height="11" viewBox="0 0 8 11" fill="none" xmlns="http://www.w3.org/2000/svg">
<path d="M5.07776 1.11244C3.91561 1.11244 2.99699 1.50521 2.32188 2.29075C1.6516 3.07141 1.31646 4.14238 1.31646 5.50366C1.31646 6.90397 1.63954 7.98714 2.28571 8.75316C2.93671 9.5143 3.86257 9.89488 5.06329 9.89488C5.80108 9.89488 6.64256 9.7607 7.5877 9.49235V10.5828C6.85473 10.8609 5.95057 11 4.87523 11C3.31766 11 2.11453 10.5218 1.26582 9.56554C0.421941 8.60923 0 7.25039 0 5.48902C0 4.38634 0.202532 3.42027 0.607595 2.59082C1.01748 1.76137 1.60579 1.1222 2.37251 0.67332C3.14406 0.22444 4.05063 0 5.09222 0C6.20133 0 7.17058 0.204923 8 0.61477L7.4792 1.6833C6.67872 1.30273 5.87824 1.11244 5.07776 1.11244Z" fill="#9B5A28" />
</svg>