<svg width="14" height="16" viewBox="0 0 14 16" fill="none" xmlns="http://www.w3.org/2000/svg">
<path d="M0.470961 7.6815H1.52224V13.514C1.52224 13.6388 1.57179 13.7584 1.65999 13.8466C1.74818 13.9348 1.86777 13.9844 1.9926 13.9844H5.11098V14.6006C5.11098 14.7253 5.16053 14.845 5.24873 14.9332C5.33692 15.0214 5.45661 15.0709 5.58134 15.0709H6.78781C6.91254 15.0709 7.03223 15.0214 7.12042 14.9332C7.20861 14.845 7.25817 14.7253 7.25817 14.6006V13.9844H11.9924C12.1173 13.9844 12.2369 13.9348 12.3251 13.8466C12.4133 13.7584 12.4628 13.6388 12.4628 13.514V7.6815H13.5141C13.638 7.68171 13.7569 7.63289 13.845 7.54585C13.9332 7.45882 13.9835 7.34049 13.9849 7.21671C13.9863 7.09282 13.9389 6.97334 13.8528 6.88431L12.19 5.17452V1.17643C12.19 1.0517 12.1405 0.932011 12.0523 0.843819C11.9641 0.755627 11.8444 0.706069 11.7197 0.706069H9.19376C9.06903 0.706069 8.94944 0.755627 8.86125 0.843819C8.77295 0.932011 8.7234 1.0517 8.7234 1.17643V1.58328L7.3312 0.143945C7.24248 0.0519711 7.12027 0 6.99249 0C6.8647 0 6.7425 0.0519711 6.65377 0.143945L0.132114 6.88439C0.0460213 6.97342 -0.00143705 7.0929 3.31683e-05 7.21679C0.00139808 7.34057 0.0516899 7.4589 0.139882 7.54594C0.227969 7.63297 0.346925 7.6818 0.470803 7.68159L0.470961 7.6815ZM6.05189 14.1303V12.0302H6.31762V14.1303H6.05189ZM6.99262 1.14829L8.85528 3.07447C8.94253 3.16508 9.06254 3.21684 9.18833 3.21831C9.31411 3.21988 9.43527 3.17096 9.52473 3.08245C9.61419 2.99394 9.66448 2.87331 9.66427 2.74752V1.6469H11.2494V5.36277C11.2493 5.48467 11.2966 5.60194 11.3811 5.68971L12.4018 6.74088H11.9926C11.8678 6.74088 11.7483 6.79044 11.6601 6.87874C11.5718 6.96693 11.5222 7.08652 11.5222 7.21124V13.0438H7.24675V11.5598C7.24675 11.4351 7.19719 11.3154 7.109 11.2272C7.0208 11.139 6.90111 11.0894 6.77638 11.0894H6.67759V10.8355C6.67822 10.6991 6.73271 10.5684 6.82919 10.472C6.92557 10.3755 7.05629 10.321 7.19266 10.3204H9.43635C10.0415 10.316 10.6034 10.006 10.9301 9.49652C11.2566 8.98699 11.3035 8.34695 11.0548 7.79523C10.8061 7.2435 10.2954 6.85482 9.69735 6.76209V6.35054C9.69735 6.22581 9.64779 6.10611 9.5596 6.01792C9.47141 5.92973 9.35172 5.88017 9.22699 5.88017H3.75196C3.62723 5.88017 3.50753 5.92973 3.41934 6.01792C3.33115 6.10611 3.28159 6.22581 3.28159 6.35054V8.08857C3.28159 8.2133 3.33115 8.33289 3.41934 8.42108C3.50753 8.50938 3.62723 8.55893 3.75196 8.55893H9.22699C9.35172 8.55893 9.47141 8.50937 9.5596 8.42108C9.64779 8.33289 9.69735 8.2133 9.69735 8.08857V7.7358C9.94965 7.82336 10.1458 8.02484 10.2265 8.27946C10.3074 8.53396 10.2633 8.81167 10.1078 9.02879C9.95218 9.2458 9.70334 9.37672 9.43637 9.3821H7.19268C6.80663 9.3821 6.43631 9.53538 6.16333 9.80846C5.89026 10.0814 5.73686 10.4518 5.73686 10.8378V11.0918H5.58169C5.45696 11.0918 5.33726 11.1413 5.24907 11.2296C5.16088 11.3178 5.11132 11.4374 5.11132 11.5621V13.0461L2.46323 13.0462V7.21128C2.46323 7.08655 2.41367 6.96696 2.32538 6.87877C2.23718 6.79047 2.1176 6.74091 1.99287 6.74091H1.5836L6.99262 1.14829ZM8.75648 6.82087V7.61818H4.22218V6.82087H8.75648Z" fill="#9B5A28"/>
</svg>