<svg width="16" height="16" viewBox="0 0 16 16" fill="none" xmlns="http://www.w3.org/2000/svg">
<path d="M9.46631 13.9L9.46629 13.4H9.46623H9.46613H9.46598H9.4658H9.46558H9.46531H9.46501H9.46466H9.46428H9.46386H9.46339H9.46289H9.46235H9.46177H9.46115H9.46048H9.45979H9.45905H9.45827H9.45745H9.4566H9.45571H9.45477H9.4538H9.4528H9.45175H9.45067H9.44954H9.44838H9.44719H9.44595H9.44468H9.44337H9.44202H9.44064H9.43922H9.43776H9.43626H9.43473H9.43316H9.43156H9.42992H9.42824H9.42653H9.42478H9.42299H9.42117H9.41932H9.41742H9.4155H9.41353H9.41153H9.4095H9.40743H9.40533H9.40319H9.40102H9.39881H9.39657H9.39429H9.39198H9.38963H9.38725H9.38484H9.38239H9.37991H9.3774H9.37485H9.37227H9.36965H9.367H9.36432H9.36161H9.35886H9.35608H9.35327H9.35043H9.34755H9.34464H9.3417H9.33872H9.33572H9.33268H9.32961H9.32651H9.32337H9.32021H9.31701H9.31379H9.31053H9.30724H9.30392H9.30057H9.29718H9.29377H9.29033H9.28686H9.28335H9.27982H9.27626H9.27266H9.26904H9.26538H9.2617H9.25799H9.25425H9.25048H9.24668H9.24285H9.23899H9.2351H9.23119H9.22724H9.22327H9.21927H9.21524H9.21118H9.20709H9.20298H9.19884H9.19467H9.19047H9.18624H9.18199H9.17771H9.1734H9.16907H9.16471H9.16032H9.15591H9.15146H9.147H9.1425H9.13798H9.13343H9.12886H9.12426H9.11963H9.11498H9.11031H9.1056H9.10088H9.09612H9.09134H9.08654H9.08171H9.07686H9.07198H9.06708H9.06215H9.05719H9.05222H9.04722H9.04219H9.03714H9.03207H9.02697H9.02185H9.01671H9.01154H9.00634H9.00113H8.99589H8.99063H8.98535H8.98004H8.97471H8.96936H8.96398H8.95858H8.95316H8.94772H8.94226H8.93677H8.93126H8.92573H8.92018H8.91461H8.90901H8.90339H8.89776H8.8921H8.88642H8.88072H8.875H8.86925H8.86349H8.85771H8.8519H8.84608H8.84024H8.83437H8.82849H8.82258H8.81666H8.81072H8.80475H8.79877H8.79277H8.78675H8.78071H8.77465H8.76857H8.76248H8.75636H8.75023H8.74408H8.73791H8.73172H8.72551H8.71929H8.71304H8.70678H8.70051H8.69421H8.6879H8.68157H8.67522H8.66885H8.66247H8.65607H8.64966H8.64323H8.63678H8.63031H8.62383H8.61733H8.61082H8.60429H8.59774H8.59118H8.5846H8.57801H8.5714H8.56478H8.55814H8.55148H8.54481H8.53813H8.53143H8.52471H8.51799H8.51124H8.50449H8.49771H8.49093H8.48413H8.47731H8.47048H8.46364H8.45679H8.44992H8.44304H8.43614H8.42923H8.42231H8.41537H8.40842H8.40146H8.39449H8.3875H8.38051H8.3735H8.36647H8.35944H8.35239H8.34533H8.33826H8.33118H8.32408H8.31698H8.30986H8.30273H8.29559H8.28844H8.28128H8.27411H8.26692H8.25973H8.25253H8.24531H8.23809H8.23085H8.22361H8.21635H8.20909H8.20181H8.19453H8.18723H8.17993H8.17262H8.1653H8.15796H8.15062H8.14328H8.13592H8.12855H8.12118H8.11379H8.1064H8.099H8.0916H8.08418H8.07676H8.06932H8.06189H8.05444H8.04698H8.03952H8.03205H8.02458H8.0171H8.00961H8.00211H7.99461H7.9871H7.97958H7.97206H7.96453H7.95699H7.94945H7.9419H7.93435H7.92679H7.91923H7.91166H7.90408H7.8965H7.88892H7.88132H7.87373H7.86613H7.85852H7.85091H7.8433H7.83568H7.82806H7.82043H7.8128H7.80516H7.79752H7.78988H7.78223H7.77458H7.76693H7.75927H7.75161H7.74395H7.73628H7.72861H7.72094H7.71326H7.70559H7.69791H7.69022H7.68254H7.67485H7.66716H7.65947H7.65178H7.64409H7.63639H7.62869H7.621H7.6133H7.60559H7.59789H7.59019H7.58249H7.57478H7.56708H7.55937H7.55166H7.54396H7.53625H7.52854H7.52084H7.51313H7.50542H7.49772H7.49001H7.48231H7.4746H7.4669H7.4592H7.4515H7.4438H7.4361H7.4284H7.4207H7.41301H7.40532H7.39762H7.38994H7.38225H7.37456H7.36688H7.3592H7.35152H7.34384H7.33617H7.3285H7.32083H7.31317H7.30551H7.29785H7.29019H7.28254H7.27489H7.26725H7.25961H7.25197H7.24434H7.23671H7.22908H7.22146H7.21385H7.20624H7.19863H7.19103H7.18343H7.17584H7.16825H7.16067H7.15309H7.14552H7.13795H7.13039H7.12284H7.11529H7.10774H7.10021H7.09267H7.08515H7.07763H7.07012H7.06261H7.05511H7.04762H7.04014H7.03266H7.02519H7.01772H7.01026H7.00282H6.99537H6.98794H6.98051H6.97309H6.96568H6.95828H6.95089H6.9435H6.93612H6.92875H6.92139H6.91404H6.9067H6.89936H6.89204H6.88472H6.87742H6.87012H6.86283H6.85555H6.84828H6.84103H6.83378H6.82654H6.81931H6.81209H6.80488H6.79769H6.7905H6.78332H6.77616H6.769H6.76186H6.75473H6.74761H6.7405H6.7334H6.72631H6.71924H6.71217H6.70512H6.69808H6.69105H6.68404H6.67703H6.67004H6.66307H6.6561H6.64915H6.64221H6.63528H6.62837H6.62147H6.61458H6.60771H6.60085H6.594H6.58717H6.58035H6.57354H6.56675H6.55997H6.55321H6.54646H6.53973H6.53301H5.53301H3.58291V7.43371L7.99538 3.10459L12.2996 7.43019V10.4V13.4H10.4663H9.46631V13.9ZM2.0996 8.00006L2.09962 8.00004H2.09965L2.0996 8.00007L2.09956 8.0001L2.0996 8.00006ZM13.8996 8.00004L13.8995 7.99995L13.8538 7.95426L13.8802 7.98067L13.8996 8.00001L13.8997 8.0001L13.8996 8.00004Z" stroke="#9B5A28"/>
<path d="M13.875 1.4375V1.51789C13.367 1.69891 13 2.18016 13 2.75C13 3.47352 13.589 4.0625 14.3125 4.0625C14.5537 4.0625 14.75 4.25828 14.75 4.5C14.75 4.74173 14.5537 4.9375 14.3125 4.9375C14.0713 4.9375 13.875 4.74173 13.875 4.5C13.875 4.25828 13.6792 4.0625 13.4375 4.0625C13.1958 4.0625 13 4.25828 13 4.5C13 5.06985 13.367 5.55109 13.875 5.73211V5.81251C13.875 6.05423 14.0708 6.25001 14.3125 6.25001C14.5542 6.25001 14.75 6.05423 14.75 5.81251V5.73211C15.258 5.55109 15.625 5.06985 15.625 4.5C15.625 3.77648 15.036 3.1875 14.3125 3.1875C14.0713 3.1875 13.875 2.99173 13.875 2.75C13.875 2.50828 14.0713 2.3125 14.3125 2.3125C14.5537 2.3125 14.75 2.50828 14.75 2.75C14.75 2.99173 14.9458 3.1875 15.1875 3.1875C15.4292 3.1875 15.625 2.99173 15.625 2.75C15.625 2.18016 15.258 1.69891 14.75 1.51789V1.4375C14.75 1.19578 14.5542 1 14.3125 1C14.0708 1 13.875 1.19578 13.875 1.4375V1.4375Z" fill="#9B5A28"/>
</svg>
