<svg width="12" height="12" viewBox="0 0 12 12" fill="none" xmlns="http://www.w3.org/2000/svg">
<path d="M11.4919 2.03518H6.93457C6.74581 2.03518 6.59277 2.18821 6.59277 2.37697V5.68101H0.508789C0.320026 5.68101 0.166992 5.83404 0.166992 6.02281V11.4916C0.166992 11.6803 0.320026 11.8334 0.508789 11.8334H11.4919C11.6806 11.8334 11.8337 11.6803 11.8337 11.4916V2.37697C11.8337 2.18821 11.6806 2.03518 11.4919 2.03518ZM7.27637 2.71877H11.1501V5.68101H7.27637V2.71877ZM0.850586 6.3646H6.59277V7.0482H0.850586V6.3646ZM0.850586 7.73179H4.76986V11.1498H0.850586V7.73179ZM5.45345 7.73179H6.59277V11.1498H5.45345V7.73179ZM7.27637 11.1498V6.3646H11.1501V11.1498H7.27637Z" fill="#9B5A28"/>
<path d="M0.508789 4.72398H5.52181C5.71057 4.72398 5.86361 4.57095 5.86361 4.38218V3.47072C5.86361 3.37094 5.81999 3.27615 5.74425 3.21121L4.26855 1.94633V0.508484C4.26855 0.319721 4.11552 0.166687 3.92676 0.166687H2.10384C1.91508 0.166687 1.76204 0.319721 1.76204 0.508484V1.94633L0.286348 3.21121C0.210605 3.27615 0.166992 3.37094 0.166992 3.47072V4.38218C0.166992 4.57095 0.320026 4.72398 0.508789 4.72398ZM2.44564 0.850281H3.58496V1.76174H2.44564V0.850281ZM0.850586 3.62793L2.23028 2.44533H3.80032L5.18001 3.62793V4.04039H0.850586V3.62793Z" fill="#9B5A28"/>
<path d="M8.30176 3.63023C8.113 3.63023 7.95996 3.78326 7.95996 3.97203V4.65562C7.95996 4.84438 8.113 4.99742 8.30176 4.99742C8.49052 4.99742 8.64355 4.84438 8.64355 4.65562V3.97203C8.64355 3.78326 8.49052 3.63023 8.30176 3.63023Z" fill="#9B5A28"/>
<path d="M8.30176 7.0482C8.113 7.0482 7.95996 7.20123 7.95996 7.38999V8.07359C7.95996 8.26235 8.113 8.41539 8.30176 8.41539C8.49052 8.41539 8.64355 8.26235 8.64355 8.07359V7.38999C8.64355 7.20123 8.49052 7.0482 8.30176 7.0482Z" fill="#9B5A28"/>
<path d="M3.74447 8.75718C3.5557 8.75718 3.40267 8.91022 3.40267 9.09898V9.78257C3.40267 9.97134 3.5557 10.1244 3.74447 10.1244C3.93323 10.1244 4.08626 9.97134 4.08626 9.78257V9.09898C4.08626 8.91022 3.93323 8.75718 3.74447 8.75718Z" fill="#9B5A28"/>
</svg>