<svg width="13" height="13" viewBox="0 0 13 13" fill="none" xmlns="http://www.w3.org/2000/svg">
<path d="M5.25 6.56293V6.64332C4.74195 6.82434 4.375 7.30559 4.375 7.87543C4.375 8.59895 4.96398 9.18793 5.6875 9.18793C5.92868 9.18793 6.125 9.38371 6.125 9.62543C6.125 9.86715 5.92868 10.0629 5.6875 10.0629C5.44632 10.0629 5.25 9.86715 5.25 9.62543C5.25 9.38371 5.05422 9.18793 4.8125 9.18793C4.57078 9.18793 4.375 9.38371 4.375 9.62543C4.375 10.1953 4.74195 10.6765 5.25 10.8575V10.9379C5.25 11.1797 5.44578 11.3754 5.6875 11.3754C5.92922 11.3754 6.125 11.1797 6.125 10.9379V10.8575C6.63305 10.6765 7 10.1953 7 9.62543C7 8.90191 6.41102 8.31293 5.6875 8.31293C5.44632 8.31293 5.25 8.11715 5.25 7.87543C5.25 7.63371 5.44632 7.43793 5.6875 7.43793C5.92868 7.43793 6.125 7.63371 6.125 7.87543C6.125 8.11715 6.32078 8.31293 6.5625 8.31293C6.80422 8.31293 7 8.11715 7 7.87543C7 7.30559 6.63305 6.82434 6.125 6.64332V6.56293C6.125 6.3212 5.92922 6.12543 5.6875 6.12543C5.44578 6.12543 5.25 6.3212 5.25 6.56293Z" fill="#9B5A28"/>
<path d="M12.1221 1.00338L11.2471 0.128384C11.0759 -0.0427945 10.7997 -0.0427945 10.6286 0.128384L9.75357 1.00338C9.58239 1.17456 9.58239 1.45073 9.75357 1.6219C9.92475 1.79308 10.2009 1.79308 10.3721 1.6219L10.5001 1.49394V6.56291C10.5001 7.98153 9.8799 9.25414 8.90042 10.1357C9.08417 9.71024 9.18753 9.24267 9.18753 8.75049C9.18753 6.82059 7.61743 5.25048 5.68753 5.25048C3.75763 5.25048 2.18753 6.82059 2.18753 8.75049C2.18753 9.24267 2.29089 9.71025 2.47464 10.1357C1.49519 9.25415 0.875 7.98153 0.875 6.56291V0.437915C0.875 0.196191 0.679224 0.000415084 0.4375 0.000415084C0.195776 0.000415084 0 0.196191 0 0.437915V6.56291C0 9.57837 2.36082 12.0464 5.3298 12.2324C5.44793 12.2444 5.5666 12.2504 5.68746 12.2504C5.80832 12.2504 5.92698 12.2444 6.04512 12.2324C9.0141 12.0464 11.3749 9.57837 11.3749 6.56291V1.49394L11.5029 1.6219C11.5882 1.70776 11.7003 1.75042 11.8124 1.75042C11.9245 1.75042 12.0366 1.70776 12.1219 1.62245C12.2926 1.45127 12.2926 1.17456 12.1219 1.00338L12.1221 1.00338ZM3.06255 8.75042C3.06255 7.30282 4.23998 6.12542 5.68755 6.12542C7.13512 6.12542 8.31255 7.30285 8.31255 8.75042C8.31255 10.1078 7.27786 11.2272 5.95551 11.3617C5.86637 11.3666 5.77832 11.3754 5.68753 11.3754C5.59674 11.3754 5.50871 11.3666 5.41956 11.3617C4.09722 11.2272 3.06252 10.1077 3.06252 8.75042H3.06255Z" fill="#9B5A28"/>
</svg>
