<svg width="23" height="23" viewBox="0 0 23 23" fill="none" xmlns="http://www.w3.org/2000/svg"><path d="M11.5 0C5.1589 0 0 5.1589 0 11.5C0 17.8411 5.1589 23 11.5 23C17.8411 23 23 17.8411 23 11.5C23 5.1589 17.8411 0 11.5 0ZM11.5 20.9091C6.31176 20.9091 2.09091 16.6882 2.09091 11.5C2.09091 6.31183 6.31176 2.09091 11.5 2.09091C16.6882 2.09091 20.9091 6.31183 20.9091 11.5C20.9091 16.6882 16.6882 20.9091 11.5 20.9091Z" fill="#4A7558"/><path d="M15.8121 7.43435L9.89805 13.3483L7.18753 10.6378C6.77931 10.2295 6.11733 10.2295 5.70905 10.6377C5.30076 11.046 5.30076 11.7079 5.70905 12.1162L9.15877 15.566C9.35483 15.7621 9.62072 15.8723 9.89798 15.8723C9.89805 15.8723 9.89798 15.8723 9.89805 15.8723C10.1753 15.8723 10.4412 15.7621 10.6373 15.5661L17.2906 8.9129C17.6989 8.50462 17.6989 7.84271 17.2906 7.43442C16.8823 7.02614 16.2204 7.02607 15.8121 7.43435Z" fill="#4A7558"/>
</svg> 