<svg width="24" height="24" viewBox="0 0 24 24" fill="none" xmlns="http://www.w3.org/2000/svg">
<path d="M23.2969 3.84375H13.9219C13.5336 3.84375 13.2188 4.15856 13.2188 4.54688V11.3438H0.703125C0.314812 11.3438 0 11.6586 0 12.0469V23.2969C0 23.6852 0.314812 24 0.703125 24H23.2969C23.6852 24 24 23.6852 24 23.2969V4.54688C24 4.15856 23.6852 3.84375 23.2969 3.84375ZM14.625 5.25H22.5938V11.3438H14.625V5.25ZM1.40625 12.75H13.2188V14.1562H1.40625V12.75ZM1.40625 15.5625H9.46875V22.5938H1.40625V15.5625ZM10.875 15.5625H13.2188V22.5938H10.875V15.5625ZM14.625 22.5938V12.75H22.5938V22.5938H14.625Z" fill="#4A7558"/>
<path d="M0.703125 9.375H11.0156C11.4039 9.375 11.7188 9.06019 11.7188 8.67188V6.79688C11.7188 6.59161 11.629 6.39661 11.4732 6.26302L8.4375 3.66098V0.703125C8.4375 0.314812 8.12269 0 7.73438 0H3.98438C3.59606 0 3.28125 0.314812 3.28125 0.703125V3.66098L0.245531 6.26302C0.0897188 6.39661 0 6.59161 0 6.79688V8.67188C0 9.06019 0.314812 9.375 0.703125 9.375ZM4.6875 1.40625H7.03125V3.28125H4.6875V1.40625ZM1.40625 7.12027L4.24448 4.6875H7.47427L10.3125 7.12027V7.96875H1.40625V7.12027Z" fill="#4A7558"/>
<path d="M16.7344 7.125C16.3461 7.125 16.0312 7.43981 16.0312 7.82812V9.23438C16.0312 9.62269 16.3461 9.9375 16.7344 9.9375C17.1227 9.9375 17.4375 9.62269 17.4375 9.23438V7.82812C17.4375 7.43981 17.1227 7.125 16.7344 7.125Z" fill="#4A7558"/>
<path d="M16.7344 14.1562C16.3461 14.1562 16.0312 14.4711 16.0312 14.8594V16.2656C16.0312 16.6539 16.3461 16.9688 16.7344 16.9688C17.1227 16.9688 17.4375 16.6539 17.4375 16.2656V14.8594C17.4375 14.4711 17.1227 14.1562 16.7344 14.1562Z" fill="#4A7558"/>
<path d="M7.35938 17.6719C6.97106 17.6719 6.65625 17.9867 6.65625 18.375V19.7812C6.65625 20.1696 6.97106 20.4844 7.35938 20.4844C7.74769 20.4844 8.0625 20.1696 8.0625 19.7812V18.375C8.0625 17.9867 7.74769 17.6719 7.35938 17.6719Z" fill="#4A7558"/>
</svg>