<svg width="24" height="26" viewBox="0 0 24 26" fill="none" xmlns="http://www.w3.org/2000/svg">
<path d="M0.915274 13.2647H2.7033V23.1847C2.7033 23.3971 2.78759 23.6005 2.93758 23.7505C3.08758 23.9005 3.29098 23.9847 3.5033 23.9847H8.80707V25.0328C8.80707 25.2449 8.89136 25.4485 9.04135 25.5985C9.19135 25.7485 9.39493 25.8328 9.60707 25.8328H11.659C11.8712 25.8328 12.0748 25.7485 12.2248 25.5985C12.3748 25.4485 12.459 25.2449 12.459 25.0328V23.9847H20.5112C20.7235 23.9847 20.9269 23.9005 21.0769 23.7505C21.2269 23.6005 21.3112 23.3971 21.3112 23.1847V13.2647H23.0992C23.3099 13.2651 23.5122 13.1821 23.662 13.034C23.812 12.886 23.8975 12.6847 23.8999 12.4742C23.9024 12.2635 23.8217 12.0603 23.6752 11.9089L20.8472 9.00084V2.20084C20.8472 1.9887 20.7629 1.78513 20.6129 1.63513C20.4629 1.48513 20.2593 1.40084 20.0472 1.40084H15.7511C15.539 1.40084 15.3356 1.48513 15.1856 1.63513C15.0354 1.78513 14.9511 1.9887 14.9511 2.20084V2.89282L12.5833 0.444774C12.4324 0.288344 12.2245 0.199951 12.0072 0.199951C11.7898 0.199951 11.582 0.288344 11.4311 0.444774L0.338959 11.909C0.192531 12.0604 0.111814 12.2636 0.114314 12.4744C0.116636 12.6849 0.202173 12.8861 0.35217 13.0342C0.50199 13.1822 0.704312 13.2652 0.915005 13.2649L0.915274 13.2647ZM10.4074 24.233V20.661H10.8594V24.233H10.4074ZM12.0074 2.15298L15.1754 5.42904C15.3238 5.58315 15.5279 5.67119 15.7419 5.67369C15.9558 5.67637 16.1619 5.59315 16.314 5.44262C16.4662 5.29208 16.5517 5.0869 16.5514 4.87297V3.00102H19.2475V9.32102C19.2473 9.52834 19.3276 9.7278 19.4714 9.87708L21.2075 11.6649H20.5114C20.2992 11.6649 20.0958 11.7492 19.9458 11.8994C19.7957 12.0494 19.7114 12.2528 19.7114 12.4649V22.3849H12.4396V19.861C12.4396 19.6488 12.3553 19.4453 12.2053 19.2953C12.0553 19.1453 11.8518 19.061 11.6396 19.061H11.4716V18.629C11.4726 18.3971 11.5653 18.1747 11.7294 18.0108C11.8934 17.8467 12.1157 17.754 12.3476 17.753H16.1637C17.193 17.7455 18.1487 17.2183 18.7042 16.3517C19.2596 15.4851 19.3394 14.3965 18.9164 13.4582C18.4933 12.5198 17.6248 11.8587 16.6076 11.701V11.001C16.6076 10.7889 16.5233 10.5853 16.3733 10.4353C16.2233 10.2853 16.0198 10.201 15.8076 10.201H6.49563C6.28349 10.201 6.07991 10.2853 5.92992 10.4353C5.77992 10.5853 5.69563 10.7889 5.69563 11.001V13.9571C5.69563 14.1692 5.77992 14.3726 5.92992 14.5226C6.07991 14.6728 6.28349 14.7571 6.49563 14.7571H15.8076C16.0198 14.7571 16.2233 14.6728 16.3733 14.5226C16.5233 14.3726 16.6076 14.1692 16.6076 13.9571V13.3571C17.0367 13.506 17.3703 13.8487 17.5077 14.2818C17.6452 14.7146 17.5702 15.1869 17.3057 15.5562C17.041 15.9253 16.6178 16.148 16.1637 16.1571H12.3477C11.6911 16.1571 11.0612 16.4178 10.5969 16.8823C10.1325 17.3466 9.87158 17.9764 9.87158 18.633V19.065H9.60766C9.39552 19.065 9.19194 19.1493 9.04194 19.2994C8.89195 19.4494 8.80766 19.6528 8.80766 19.865V22.3889L4.30375 22.3891V12.465C4.30375 12.2528 4.21946 12.0494 4.06929 11.8994C3.91929 11.7493 3.71589 11.665 3.50375 11.665H2.80766L12.0074 2.15298ZM15.0074 11.801V13.157H7.29539V11.801H15.0074Z" fill="#4A7558"/>
</svg>
