<svg width="28" height="28" viewBox="0 0 28 28" fill="none" xmlns="http://www.w3.org/2000/svg">
<path d="M26.356 5.0791H16.1021C15.6773 5.0791 15.333 5.42343 15.333 5.84814V13.2822H1.64404C1.21933 13.2822 0.875 13.6266 0.875 14.0513V26.356C0.875 26.7807 1.21933 27.125 1.64404 27.125H26.356C26.7807 27.125 27.125 26.7807 27.125 26.356V5.84814C27.125 5.42343 26.7807 5.0791 26.356 5.0791ZM16.8711 6.61719H25.5869V13.2822H16.8711V6.61719ZM2.41309 14.8203H15.333V16.3584H2.41309V14.8203ZM2.41309 17.8965H11.2314V25.5869H2.41309V17.8965ZM12.7695 17.8965H15.333V25.5869H12.7695V17.8965ZM16.8711 25.5869V14.8203H25.5869V25.5869H16.8711Z" fill="#4A7558"/>
<path d="M1.64404 11.1289H12.9233C13.3481 11.1289 13.6924 10.7846 13.6924 10.3599V8.30908C13.6924 8.08457 13.5943 7.87129 13.4238 7.72517L10.1035 4.8792V1.64404C10.1035 1.21933 9.75919 0.875 9.33447 0.875H5.23291C4.80819 0.875 4.46387 1.21933 4.46387 1.64404V4.8792L1.14355 7.72517C0.97313 7.87129 0.875 8.08457 0.875 8.30908V10.3599C0.875 10.7846 1.21933 11.1289 1.64404 11.1289ZM6.00195 2.41309H8.56543V4.46387H6.00195V2.41309ZM2.41309 8.66279L5.51741 6.00195H9.04998L12.1543 8.66279V9.59082H2.41309V8.66279Z" fill="#4A7558"/>
<path d="M19.1782 8.66797C18.7535 8.66797 18.4092 9.01229 18.4092 9.43701V10.9751C18.4092 11.3998 18.7535 11.7441 19.1782 11.7441C19.6029 11.7441 19.9473 11.3998 19.9473 10.9751V9.43701C19.9473 9.01229 19.6029 8.66797 19.1782 8.66797Z" fill="#4A7558"/>
<path d="M19.1782 16.3584C18.7535 16.3584 18.4092 16.7027 18.4092 17.1274V18.6655C18.4092 19.0902 18.7535 19.4346 19.1782 19.4346C19.6029 19.4346 19.9473 19.0902 19.9473 18.6655V17.1274C19.9473 16.7027 19.6029 16.3584 19.1782 16.3584Z" fill="#4A7558"/>
<path d="M8.92432 20.2036C8.4996 20.2036 8.15527 20.5479 8.15527 20.9727V22.5107C8.15527 22.9355 8.4996 23.2798 8.92432 23.2798C9.34903 23.2798 9.69336 22.9355 9.69336 22.5107V20.9727C9.69336 20.5479 9.34903 20.2036 8.92432 20.2036Z" fill="#4A7558"/>
</svg>