<svg width="24" height="24" viewBox="0 0 24 24" fill="none" xmlns="http://www.w3.org/2000/svg">
<path d="M23.2941 0H0.705882C0.316047 0 0 0.314813 0 0.703125C0 1.09144 0.316047 1.40625 0.705882 1.40625H0.752941V23.2969C0.752941 23.6852 1.06899 24 1.45882 24C1.84866 24 2.16471 23.6852 2.16471 23.2969V22.875H21.8353V23.2969C21.8353 23.6852 22.1513 24 22.5412 24C22.931 24 23.2471 23.6852 23.2471 23.2969V1.40625H23.2941C23.684 1.40625 24 1.09144 24 0.703125C24 0.314813 23.684 0 23.2941 0ZM12.7059 14.5781H21.8353V17.2969H12.7059V14.5781ZM21.8353 13.1719H12.7059V10.4531H21.8353V13.1719ZM11.2941 21.4688H7.43529V1.40625H11.2941V21.4688ZM2.16471 1.40625H6.02353V21.4688H2.16471V1.40625ZM12.7059 21.4688V18.7031H21.8353V21.4688H12.7059ZM21.8353 9.04688H12.7059V1.40625H21.8353V9.04688Z" fill="#4A7558"/>
<path d="M9.36471 12.7031C9.75455 12.7031 10.0706 12.3883 10.0706 12C10.0706 11.6117 9.75455 11.2969 9.36471 11.2969C8.97486 11.2969 8.65882 11.6117 8.65882 12C8.65882 12.3883 8.97486 12.7031 9.36471 12.7031Z" fill="#4A7558"/>
<path d="M4.09412 12.7032C4.48397 12.7032 4.8 12.3884 4.8 12.0001C4.8 11.6117 4.48397 11.2969 4.09412 11.2969C3.70427 11.2969 3.38824 11.6117 3.38824 12.0001C3.38824 12.3884 3.70427 12.7032 4.09412 12.7032Z" fill="#4A7558"/>
</svg>