<svg width="30" height="21" viewBox="0 0 30 21" fill="none" xmlns="http://www.w3.org/2000/svg">
<path d="M27.5167 5.63811L19.9305 0.167897C19.7799 0.0587978 19.5983 0 19.4118 0C19.2253 0 19.0436 0.0587978 18.893 0.167897L12.7736 4.58117L7.63271 0.211472C7.47316 0.0750494 7.2695 2.50337e-06 7.05882 2.50337e-06C6.84815 2.50337e-06 6.64449 0.0750494 6.48494 0.211472L0.308471 5.46141C0.211615 5.54327 0.133861 5.64503 0.0805973 5.75964C0.0273335 5.87425 -0.000167054 5.99898 7.63455e-07 6.12518V14.8751C-6.30288e-05 14.99 0.0227162 15.1038 0.067036 15.21C0.111356 15.3162 0.176347 15.4127 0.258294 15.4939C0.34024 15.5752 0.437536 15.6396 0.544617 15.6836C0.651697 15.7275 0.766464 15.7501 0.882354 15.7501H8.82353V20.125C8.82347 20.2399 8.84625 20.3537 8.89057 20.4599C8.93489 20.5661 8.99988 20.6626 9.08182 20.7439C9.16377 20.8251 9.26107 20.8896 9.36815 20.9335C9.47523 20.9775 9.58999 21.0001 9.70588 21H29.1176C29.2335 21.0001 29.3483 20.9775 29.4554 20.9335C29.5625 20.8896 29.6598 20.8251 29.7417 20.7439C29.8237 20.6626 29.8886 20.5661 29.933 20.4599C29.9773 20.3537 30.0001 20.2399 30 20.125V15.7501C30 7.87516 27.5167 5.63811 27.5167 5.63811ZM1.76471 14.0001V6.52767L7.05882 2.02808L11.3069 5.63829L9.18715 7.16781C9.07444 7.24879 8.98271 7.35512 8.91949 7.47809C8.85628 7.60105 8.82339 7.73714 8.82353 7.87516V14.0001H1.76471ZM17.6471 19.25V12.2501H21.1765V19.25H17.6471ZM28.2353 19.25H22.9412V11.3751C22.9412 11.2602 22.9185 11.1464 22.8742 11.0402C22.8298 10.934 22.7648 10.8375 22.6829 10.7562C22.6009 10.675 22.5037 10.6105 22.3966 10.5666C22.2895 10.5226 22.1747 10.5001 22.0588 10.5001H16.7647C16.6488 10.5001 16.534 10.5226 16.427 10.5666C16.3199 10.6105 16.2226 10.675 16.1406 10.7562C16.0587 10.8375 15.9937 10.934 15.9494 11.0402C15.9051 11.1464 15.8823 11.2602 15.8824 11.3751V19.25H10.5882V8.32048L19.4118 1.95716L28.2353 8.32048V19.25ZM30 14.0001V7.87516C30.0002 7.73711 29.9673 7.60099 29.9041 7.47799C29.8409 7.35499 29.7491 7.24863 29.6364 7.16764L27.5167 5.63811L30 14.0001Z" fill="#4A7558"/>
</svg>