<svg width="30" height="30" viewBox="0 0 30 30" fill="none" xmlns="http://www.w3.org/2000/svg">
<path d="M30 14.9839C30 13.3412 28.868 11.9582 27.3432 11.5731V6.92865C28.868 6.54352 30 5.16059 30 3.51779C30 1.57805 28.422 0 26.4822 0C24.8459 0 23.467 1.12301 23.0756 2.63871H18.2875C17.8961 1.12301 16.5172 0 14.8809 0C13.2446 0 11.8657 1.12301 11.4743 2.63871H6.94834C6.55693 1.12301 5.17805 0 3.54176 0C1.60201 0 0.0239648 1.57811 0.0239648 3.51779C0.0239648 5.15057 1.14217 6.52682 2.65295 6.92162V11.574C1.1301 11.9604 0 13.3426 0 14.9839C0 16.6252 1.1301 18.0073 2.65295 18.3939V23.0462C1.14217 23.441 0.0239648 24.8173 0.0239648 26.45C0.0239648 28.3898 1.60201 29.9678 3.54176 29.9678C5.17805 29.9678 6.55693 28.8448 6.94834 27.3291H11.4743C11.8657 28.8448 13.2446 29.9678 14.8809 29.9678C16.5172 29.9678 17.8961 28.8448 18.2875 27.3291H23.0756C23.467 28.8448 24.8459 29.9678 26.4822 29.9678C28.422 29.9678 30 28.3897 30 26.45C30 24.8073 28.868 23.4243 27.3432 23.0392V18.3947C28.868 18.0096 30 16.6266 30 14.9839ZM26.4822 1.75822C27.4525 1.75822 28.2418 2.5476 28.2418 3.51779C28.2418 4.48799 27.4525 5.27736 26.4822 5.27736C25.512 5.27736 24.7226 4.48799 24.7226 3.51779C24.7226 2.5476 25.512 1.75822 26.4822 1.75822ZM14.8809 1.75822C15.8511 1.75822 16.6404 2.5476 16.6404 3.51779C16.6404 4.48799 15.8511 5.27736 14.8809 5.27736C13.9106 5.27736 13.1213 4.48799 13.1213 3.51779C13.1213 2.5476 13.9106 1.75822 14.8809 1.75822ZM1.78213 3.51785C1.78213 2.5476 2.57145 1.75828 3.5417 1.75828C4.51195 1.75828 5.30127 2.54766 5.30127 3.51785C5.30127 4.48805 4.51195 5.27742 3.54176 5.27742C2.57145 5.27742 1.78213 4.48805 1.78213 3.51785ZM1.75822 14.9839C1.75822 14.0136 2.54754 13.2244 3.51779 13.2244C4.48805 13.2244 5.27736 14.0137 5.27736 14.9839C5.27736 15.9541 4.48805 16.7435 3.51779 16.7435C2.54754 16.7435 1.75822 15.9541 1.75822 14.9839ZM3.54176 28.2095C2.5715 28.2095 1.78219 27.4202 1.78219 26.45C1.78219 25.4798 2.5715 24.6904 3.54176 24.6904C4.51201 24.6904 5.30133 25.4798 5.30133 26.45C5.30133 27.4202 4.51195 28.2095 3.54176 28.2095ZM16.6308 26.6341C16.5384 27.5181 15.789 28.2095 14.8809 28.2095C13.9106 28.2095 13.1213 27.4202 13.1213 26.45C13.1213 25.4798 13.9106 24.6904 14.8809 24.6904C15.7889 24.6904 16.5384 25.3819 16.6308 26.2658C16.6181 26.3252 16.6112 26.3868 16.6112 26.45C16.6112 26.5131 16.6181 26.5747 16.6308 26.6341ZM23.0756 25.5708H18.2875C17.8961 24.0551 16.5172 22.9321 14.8809 22.9321C13.2446 22.9321 11.8657 24.0551 11.4743 25.5708H6.94834C6.62871 24.333 5.65037 23.3572 4.41117 23.0411V18.3864C5.91961 17.99 7.0357 16.615 7.0357 14.9838C7.0357 13.3527 5.91967 11.9777 4.41117 11.5813V6.92666C5.65037 6.61043 6.62871 5.63473 6.94834 4.39687H11.4743C11.8657 5.91258 13.2446 7.03559 14.8809 7.03559C16.5172 7.03559 17.8961 5.91258 18.2875 4.39687H23.0756C23.3929 5.62541 24.359 6.5956 25.585 6.91922V11.5824C24.0785 11.9801 22.9644 13.3541 22.9644 14.9838C22.9644 16.6136 24.0785 17.9876 25.585 18.3853V23.0485C24.359 23.3721 23.3929 24.3422 23.0756 25.5708ZM28.2418 26.45C28.2418 27.4202 27.4525 28.2095 26.4822 28.2095C25.512 28.2095 24.7226 27.4202 24.7226 26.45C24.7226 25.4798 25.512 24.6904 26.4822 24.6904C27.4525 24.6903 28.2418 25.4797 28.2418 26.45ZM26.4822 16.7435C25.512 16.7435 24.7226 15.9541 24.7226 14.9839C24.7226 14.0137 25.512 13.2244 26.4822 13.2244C27.4525 13.2244 28.2418 14.0137 28.2418 14.9839C28.2418 15.9541 27.4525 16.7435 26.4822 16.7435Z" fill="#4A7558"/>
</svg>
