<svg width="10" height="10" viewBox="0 0 10 10" fill="none" xmlns="http://www.w3.org/2000/svg">
<path d="M2.45081 9.42869C2.34968 9.42869 2.24925 9.39714 2.16354 9.33517C2.00388 9.21945 1.9293 9.02057 1.97275 8.82865L2.56659 6.21279L0.55266 4.44662C0.404622 4.31738 0.348069 4.11272 0.408848 3.92546C0.469626 3.73854 0.634989 3.60621 0.830776 3.58811L3.49545 3.3462L4.54897 0.880759C4.62665 0.699621 4.80356 0.582642 5.00012 0.582642C5.19669 0.582642 5.3736 0.699621 5.45128 0.880336L6.5048 3.3462L9.16905 3.58811C9.36526 3.60579 9.53062 3.73854 9.5914 3.92546C9.65218 4.11237 9.59598 4.31738 9.44794 4.44662L7.43401 6.21243L8.02785 8.82823C8.07138 9.02057 7.99672 9.21945 7.83714 9.33481C7.6779 9.45017 7.46556 9.45905 7.29788 9.35827L5.00012 7.98515L2.70237 9.35904C2.62469 9.40517 2.53814 9.42869 2.45081 9.42869ZM5.00012 7.39363C5.08745 7.39363 5.17394 7.41709 5.25169 7.46322L7.42021 8.7602L6.85975 6.29124C6.81975 6.11553 6.8794 5.93206 7.01518 5.81318L8.91678 4.14547L6.40092 3.91701C6.21978 3.90046 6.06399 3.78658 5.99322 3.61966L5.00012 1.29304L4.00584 3.62002C3.93583 3.7858 3.78005 3.89968 3.59933 3.91623L1.08312 4.1447L2.98464 5.81241C3.12085 5.93164 3.18043 6.11475 3.14008 6.29089L2.58004 8.75978L4.74856 7.46322C4.82624 7.41709 4.9128 7.39363 5.00012 7.39363ZM3.4751 3.39388C3.4751 3.39388 3.4751 3.3943 3.47468 3.39465L3.4751 3.39388ZM6.52438 3.39275L6.5248 3.39352C6.5248 3.3931 6.5248 3.3931 6.52438 3.39275Z" fill="#9B5A28"/>
</svg>