<svg width="30" height="22" viewBox="0 0 30 22" fill="none" xmlns="http://www.w3.org/2000/svg">
<path d="M26.1108 7.18447C26.8849 6.4214 27.3633 5.37911 27.3633 4.23077C27.3633 1.89792 25.3919 0 22.9688 0C20.5456 0 18.5742 1.89792 18.5742 4.23077C18.5742 5.37268 19.0474 6.40967 19.8139 7.17161C18.9513 7.49422 18.1687 8.00101 17.5321 8.65565C16.1453 7.26784 13.8533 7.26936 12.4679 8.65565C11.8313 8.00106 11.0487 7.49427 10.1861 7.17166C10.9526 6.40973 11.4258 5.37274 11.4258 4.23077C11.4258 1.89792 9.45439 0 7.03125 0C4.60811 0 2.63672 1.89792 2.63672 4.23077C2.63672 5.37911 3.11508 6.4214 3.88916 7.18447C1.61332 8.05431 0 10.1953 0 12.6923V21.1538C0 21.6211 0.393516 22 0.878906 22H29.1211C29.6065 22 30 21.6211 30 21.1538V12.6923C30 10.1953 28.3867 8.05431 26.1108 7.18447ZM22.9688 1.69231C24.4226 1.69231 25.6055 2.83106 25.6055 4.23077C25.6055 5.63048 24.4226 6.76923 22.9688 6.76923C21.5149 6.76923 20.332 5.63048 20.332 4.23077C20.332 2.83106 21.5149 1.69231 22.9688 1.69231ZM15 9.30769C15.9693 9.30769 16.7578 10.0669 16.7578 11C16.7578 11.9331 15.9693 12.6923 15 12.6923C14.0307 12.6923 13.2422 11.9331 13.2422 11C13.2422 10.0669 14.0307 9.30769 15 9.30769ZM7.03125 1.69231C8.48514 1.69231 9.66797 2.83106 9.66797 4.23077C9.66797 5.63048 8.48514 6.76923 7.03125 6.76923C5.57736 6.76923 4.39453 5.63048 4.39453 4.23077C4.39453 2.83106 5.57736 1.69231 7.03125 1.69231ZM1.75781 12.6923C1.75781 10.3595 3.7292 8.46154 6.15234 8.46154H7.96875C9.40072 8.46154 10.7506 9.14574 11.5686 10.266C11.3376 11.2674 11.5875 12.3003 12.2446 13.0983C10.7576 13.7773 9.72656 15.2362 9.72656 16.9231V20.3077H1.75781V12.6923ZM11.4844 20.3077V16.9231C11.4844 15.5234 12.6672 14.3846 14.1211 14.3846H15.8789C17.3328 14.3846 18.5156 15.5234 18.5156 16.9231V20.3077H11.4844ZM28.2422 20.3077H20.2734V16.9231C20.2734 15.2362 19.2424 13.7773 17.7554 13.0983C18.4119 12.301 18.6626 11.2683 18.4314 10.2661C19.2494 9.14568 20.5991 8.46154 22.0312 8.46154H23.8477C26.2708 8.46154 28.2422 10.3595 28.2422 12.6923V20.3077Z" fill="#4A7558"/>
</svg>