<svg width="30" height="30" viewBox="0 0 30 30" fill="none" xmlns="http://www.w3.org/2000/svg">
<path fill-rule="evenodd" clip-rule="evenodd" d="M7.95152 0C7.35264 0 6.86719 0.485449 6.86719 1.08434V2.89136H2.16756C1.17105 2.89136 0.360352 3.70206 0.360352 4.69856V28.1925C0.360352 29.1891 1.17105 29.9998 2.16756 29.9998H27.8302C28.8267 29.9998 29.6374 29.1891 29.6374 28.1926V4.69862C29.6374 3.70212 28.8267 2.89136 27.8302 2.89136H23.4939V1.08434C23.4939 0.485449 23.0084 0 22.4095 0C21.8106 0 21.3252 0.485449 21.3252 1.08434V2.89136H9.03586V1.08434C9.03586 0.485449 8.55041 0 7.95152 0ZM21.3252 5.06003H9.03586V6.86748C9.03586 7.46637 8.55041 7.95182 7.95152 7.95182C7.35264 7.95182 6.86719 7.46637 6.86719 6.86748V5.06003H2.52902V10.1206H27.4688V5.06003H23.4939V6.86748C23.4939 7.46637 23.0084 7.95182 22.4095 7.95182C21.8106 7.95182 21.3252 7.46637 21.3252 6.86748V5.06003ZM2.52902 27.8311H27.4688H27.4688V12.2893H2.52902V27.8311ZM19.1582 21.6868H11.2064C10.6075 21.6868 10.1221 22.1722 10.1221 22.7711C10.1221 23.37 10.6075 23.8554 11.2064 23.8554H19.1582C19.7571 23.8554 20.2425 23.37 20.2425 22.7711C20.2425 22.1722 19.7571 21.6868 19.1582 21.6868ZM11.2064 16.6262H19.1582C19.7571 16.6262 20.2425 17.1116 20.2425 17.7106C20.2425 18.3095 19.7571 18.7949 19.1582 18.7949H11.2064C10.6075 18.7949 10.1221 18.3094 10.1221 17.7106C10.1221 17.1117 10.6075 16.6262 11.2064 16.6262Z" fill="#4A7558"/>
</svg>
